<svg width="30" height="30" viewBox="0 0 30 30" fill="none" xmlns="http://www.w3.org/2000/svg">
<path d="M23.0739 16.9988C23.3632 16.7749 23.5974 16.4877 23.7586 16.1592C23.9197 15.8307 24.0035 15.4697 24.0035 15.1038C24.0035 14.738 23.9197 14.3769 23.7586 14.0485C23.5974 13.72 23.3632 13.4328 23.0739 13.2088C19.327 10.3096 15.1432 8.02444 10.6789 6.43883L9.8626 6.14883C8.3026 5.59508 6.65385 6.65008 6.4426 8.26133C5.85247 12.8039 5.85247 17.4038 6.4426 21.9463C6.6551 23.5576 8.3026 24.6126 9.8626 24.0588L10.6789 23.7688C15.1432 22.1832 19.327 19.898 23.0739 16.9988Z" fill="#D7A36A"/>
</svg>
