<svg width="21" height="21" viewBox="0 0 21 21" fill="none" xmlns="http://www.w3.org/2000/svg">
<g id="9054263_bx_cart_alt_icon 1">
<path id="Vector" d="M18.114 4.00923H2V5.70012H3.95064L6.73242 13.3091C6.90739 13.8025 7.23116 14.2298 7.65934 14.5325C8.08752 14.8352 8.59914 14.9985 9.12407 15H16.4178V13.3091H9.12407C8.94977 13.309 8.77973 13.2554 8.63708 13.1556C8.49444 13.0557 8.38611 12.9145 8.32685 12.7511L7.93673 11.6182H15.8071C16.1752 11.6177 16.5332 11.4978 16.8269 11.2767C17.1207 11.0555 17.3343 10.7451 17.4355 10.3923L18.9621 5.08295C18.9965 4.97192 19.0077 4.85501 18.9948 4.7395C18.9819 4.624 18.9453 4.51238 18.8872 4.41162C18.8291 4.31086 18.7508 4.22313 18.6571 4.15389C18.5635 4.08466 18.4565 4.03541 18.343 4.00923C18.2671 3.99692 18.1898 3.99692 18.114 4.00923ZM15.7817 9.92734H7.30065L5.7571 5.70012H16.986L15.7817 9.92734Z" fill="#E0674D"/>
<path id="Vector_2" d="M9.5 19C10.3284 19 11 18.3284 11 17.5C11 16.6716 10.3284 16 9.5 16C8.67157 16 8 16.6716 8 17.5C8 18.3284 8.67157 19 9.5 19Z" fill="#E0674D"/>
<path id="Vector_3" d="M14.5 19C15.3284 19 16 18.3284 16 17.5C16 16.6716 15.3284 16 14.5 16C13.6716 16 13 16.6716 13 17.5C13 18.3284 13.6716 19 14.5 19Z" fill="#E0674D"/>
</g>
</svg>
