<svg width="30" height="30" viewBox="0 0 30 30" fill="none" xmlns="http://www.w3.org/2000/svg">
<path fill-rule="evenodd" clip-rule="evenodd" d="M14.5625 6.9726C11.9137 5.15285 8.23692 4.32416 5.49291 4.01409C4.12053 3.85901 3 5.00503 3 6.41897V20.4999C3 21.9139 4.12053 23.0603 5.49291 23.2154C8.23692 23.5255 11.9137 24.3542 14.5625 26.1739V6.9726ZM16.4375 26.1739C19.0863 24.3542 22.7631 23.5255 25.5071 23.2154C26.8795 23.0603 28 21.9139 28 20.4999V6.41897C28 5.00503 26.8795 3.85901 25.5071 4.01409C22.7631 4.32416 19.0863 5.15285 16.4375 6.9726V26.1739ZM5.82352 10.425C5.90277 9.91329 6.38179 9.56273 6.89346 9.64198C8.52193 9.89418 10.3559 10.3157 12.0881 10.9856C12.571 11.1723 12.8111 11.7152 12.6244 12.1981C12.4376 12.681 11.8948 12.9211 11.4118 12.7344C9.83854 12.126 8.14247 11.7328 6.6065 11.4949C6.09483 11.4156 5.74428 10.9366 5.82352 10.425ZM6.89346 14.642C6.38179 14.5627 5.90277 14.9133 5.82352 15.425C5.74428 15.9366 6.09483 16.4156 6.6065 16.4949C7.38056 16.6148 8.19765 16.7745 9.02064 16.9821C9.52267 17.1088 10.0323 16.8045 10.159 16.3024C10.2857 15.8004 9.98136 15.2907 9.47932 15.1641C8.59306 14.9405 7.71813 14.7697 6.89346 14.642Z" fill="#D7A36A"/>
</svg>
