<svg width="30" height="30" viewBox="0 0 30 30" fill="none" xmlns="http://www.w3.org/2000/svg">
<g id="icon">
<g id="training">
<path id="combo shape" fill-rule="evenodd" clip-rule="evenodd" d="M7.9375 5.4375C7.9375 4.57456 8.63706 3.875 9.5 3.875H24.5C25.3629 3.875 26.0625 4.57456 26.0625 5.4375V12.9375C26.0625 13.8004 25.3629 14.5 24.5 14.5H23.25C22.7322 14.5 22.3125 14.9197 22.3125 15.4375C22.3125 15.9553 22.7322 16.375 23.25 16.375H24.5C26.3985 16.375 27.9375 14.836 27.9375 12.9375V5.4375C27.9375 3.53902 26.3985 2 24.5 2H9.5C7.60152 2 6.0625 3.53902 6.0625 5.4375V7.3125C6.0625 7.83027 6.48223 8.25 7 8.25C7.51777 8.25 7.9375 7.83027 7.9375 7.3125V5.4375ZM8.25 12.9375C8.25 14.3182 7.13071 15.4375 5.75 15.4375C4.36929 15.4375 3.25 14.3182 3.25 12.9375C3.25 11.5568 4.36929 10.4375 5.75 10.4375C7.13071 10.4375 8.25 11.5568 8.25 12.9375ZM21.5386 12.1946C21.8186 11.759 21.6925 11.179 21.257 10.899C20.8214 10.619 20.2414 10.7451 19.9614 11.1807L15.0981 18.7459C14.5992 18.5809 14.0327 18.6326 13.5535 18.9375L9.5 21.0625V20.4375C9.5 18.3664 7.82107 16.6875 5.75 16.6875C3.67893 16.6875 2 18.3664 2 20.4375V27.9375H9.5V25.0375C9.82925 24.9884 10.1543 24.8723 10.4553 24.6842L15.4892 22.0068C16.0922 21.6299 16.3983 20.9556 16.3336 20.2912L21.5386 12.1946ZM11.0625 7.9375C11.0625 7.41973 11.4822 7 12 7H22C22.5178 7 22.9375 7.41973 22.9375 7.9375C22.9375 8.45527 22.5178 8.875 22 8.875H12C11.4822 8.875 11.0625 8.45527 11.0625 7.9375ZM12 10.75C11.4822 10.75 11.0625 11.1697 11.0625 11.6875C11.0625 12.2053 11.4822 12.625 12 12.625H17C17.5178 12.625 17.9375 12.2053 17.9375 11.6875C17.9375 11.1697 17.5178 10.75 17 10.75H12Z" fill="#D7A36A"/>
</g>
</g>
</svg>
