<svg width="153" height="136" viewBox="0 0 153 136" fill="none" xmlns="http://www.w3.org/2000/svg">
<g id="crown" clip-path="url(#clip0_1_423)">
<path id="Vector" d="M127.218 44.3157C124.94 44.3518 123.598 43.7467 122.783 42.1669C122.007 40.6652 122.514 39.3177 123.339 38.0752C123.771 37.4197 124.335 36.8611 124.995 36.4344C128.497 34.235 131.987 32.0034 135.602 30.0022C136.799 29.4182 138.139 29.1904 139.462 29.3459C140.075 29.4158 140.662 29.6297 141.177 29.9701C141.691 30.3104 142.118 30.7677 142.422 31.3045C142.726 31.8413 142.899 32.4423 142.927 33.0586C142.954 33.6749 142.835 34.2889 142.58 34.8506C141.935 36.2696 140.914 37.4845 139.626 38.3627C136.389 40.3265 132.963 41.9863 129.567 43.6751C128.813 43.9848 128.024 44.2001 127.218 44.3157Z" fill="white"/>
<path id="Vector_2" d="M20.985 49.056C20.263 48.6491 18.6275 48.0768 17.4763 46.9886C15.6229 45.1995 13.9406 43.2412 12.4514 41.1392C11.6573 40.0697 11.2022 38.7868 11.1445 37.456C11.1714 35.0276 13.7292 33.2757 16.3171 34.1414C18.4646 34.8047 20.4598 35.8858 22.1879 37.3228C23.9161 38.7599 25.343 40.5245 26.3867 42.5151C28.1319 45.9228 25.727 49.1663 20.985 49.056Z" fill="white"/>
<path id="Vector_3" d="M113.818 0.347784C117.26 0.326781 119.331 2.90155 118.65 5.60698C118.462 6.48383 118.058 7.29979 117.475 7.98093C115.143 10.3884 112.792 12.7946 110.255 14.9782C109.024 16.0375 107.469 16.829 105.599 16.1989C103.422 15.4652 102.371 13.6747 103.078 11.5068C103.26 10.8575 103.566 10.2495 103.979 9.71629C106.169 7.17823 108.329 4.60276 110.691 2.23075C111.662 1.25543 113.111 0.757994 113.818 0.347784Z" fill="white"/>
<path id="Vector_4" d="M52.6747 13.0434C52.4778 15.0321 51.6462 16.5043 49.8525 17.37C48.1749 18.1787 46.723 17.6233 45.5573 16.4695C43.0256 14.0698 41.1226 11.0844 40.0159 7.77622C39.2775 5.43769 39.972 3.48322 41.666 2.43243C43.4676 1.31665 45.4261 1.4734 47.1372 3.30524C49.7474 6.10387 51.937 9.20907 52.6747 13.0434Z" fill="white"/>
<path id="Vector_5" d="M152.195 64.8181C152.143 63.1287 151.844 61.4561 151.305 59.8542C150.522 57.7297 149.112 56.2864 147.345 55.8013C145.558 55.3084 143.589 55.8414 141.801 57.2912C140.453 58.384 139.131 59.5779 137.856 60.7311C137.331 61.203 136.806 61.6821 136.281 62.1474L129.28 68.3719C123.568 73.4507 117.851 78.5294 112.13 83.6075C111.719 83.9508 111.287 84.2664 110.835 84.5513C110.652 84.6727 110.464 84.7941 110.275 84.9294C110.147 85.0166 110.001 85.0737 109.848 85.0961C109.695 85.119 109.539 85.1072 109.391 85.0606C109.242 85.0147 109.107 84.9346 108.994 84.827C108.882 84.7193 108.796 84.5867 108.744 84.4404C107.469 80.9533 106.229 77.4832 104.987 74.0269C102.231 66.3478 99.3764 58.4011 96.3894 50.7128C92.2275 40.0144 87.7631 29.6364 83.5685 20.0125C82.4737 17.6866 80.9864 15.5672 79.171 13.7471C77.5387 12.0407 75.7515 11.9127 73.3841 13.3494C71.4558 14.5092 70.6327 16.5189 69.7624 18.6434L69.6817 18.8403C68.812 20.9445 67.9516 23.0533 67.099 25.1667C64.4887 31.5739 61.7911 38.2101 58.9249 44.6442C54.5931 54.3757 49.9075 64.1486 45.4765 73.326C43.9729 76.4416 42.334 79.4358 40.6006 82.6059C39.813 84.0499 39.009 85.5194 38.2063 87.0303C38.1416 87.1537 38.0521 87.262 37.9436 87.3486C37.8351 87.4352 37.7098 87.4989 37.5755 87.535C37.4413 87.5711 37.3011 87.579 37.1636 87.5586C37.0262 87.5376 36.8945 87.4891 36.7768 87.4149L33.9302 85.627C32.1227 84.5008 30.4772 83.4762 28.8384 82.4372C26.532 80.9808 24.2254 79.5218 21.9186 78.0601C17.4004 75.1939 12.8773 72.3388 8.34947 69.4949C7.33425 68.7519 6.13093 68.3076 4.87613 68.2137C3.95195 68.2433 3.06997 68.6075 2.39451 69.2389C0.404495 70.8706 -0.155345 72.8875 0.688047 75.4085C1.22756 77.0336 1.95609 78.6528 2.65706 80.2241L2.69119 80.2897C3.25761 81.565 3.87784 82.8527 4.47117 84.1004C5.59088 86.454 6.75785 88.8917 7.6951 91.3857C8.29539 92.9636 8.89797 94.544 9.50266 96.1271C13.3672 106.25 17.3597 116.717 19.9699 127.494C20.8534 131.15 22.9641 133.126 26.4237 133.537C27.3747 133.652 28.3271 133.773 29.2702 133.895C33.1509 134.479 37.0676 134.793 40.9918 134.832C49.9075 134.718 58.9715 134.387 67.7396 134.07C71.5969 133.928 75.4522 133.794 79.3056 133.666C85.632 133.463 91.9584 133.269 98.2842 133.086L105.548 132.863C106.135 132.849 106.721 132.829 107.315 132.816C107.955 132.802 108.603 132.782 109.25 132.762C111.496 132.696 113.742 132.606 115.988 132.526C121.501 132.324 127.19 132.114 132.801 132.081C135.391 132.067 137.219 131.162 138.561 129.241C139.486 127.831 140.189 126.287 140.645 124.662L141.373 122.274C144.347 112.536 147.416 102.459 149.223 92.2626C149.399 91.2709 149.581 90.2864 149.756 89.2947C151.196 81.328 152.693 73.0726 152.195 64.8181ZM129.716 120.384C129.651 120.562 129.538 120.717 129.389 120.834C129.24 120.95 129.061 121.021 128.873 121.04C128.064 121.128 127.227 121.229 126.384 121.33C124.456 121.567 122.453 121.81 120.429 121.897C117.111 122.039 113.739 122.14 110.481 122.225C106.138 122.356 101.646 122.481 97.242 122.724C92.1101 123.014 86.8895 123.439 81.8449 123.85C78.9452 124.086 76.0449 124.323 73.1452 124.531C68.9098 124.842 65.3754 125.091 61.6933 125.206C52.6221 125.496 43.4025 125.731 34.4868 125.962L30.0697 126.076H29.9679C29.5576 126.067 29.1491 126.019 28.7478 125.934C28.6126 125.907 28.478 125.88 28.3494 125.868C28.1579 125.842 27.9781 125.761 27.8311 125.636C27.6841 125.51 27.5761 125.345 27.5198 125.16L15.8055 87.0552C15.7432 86.859 15.743 86.6476 15.8047 86.4507C15.8664 86.2538 15.9872 86.0812 16.1506 85.9552C16.3139 85.8292 16.5121 85.7563 16.7182 85.7471C16.9242 85.7373 17.1282 85.7911 17.3026 85.9014L18.82 86.8393C19.8249 87.4595 20.749 88.026 21.6593 88.6062C22.954 89.4292 24.2491 90.2477 25.5442 91.0609C28.7544 93.0909 32.0794 95.182 35.283 97.3532C37.3327 98.7426 39.1271 99.2756 40.6039 98.9382C42.0478 98.61 43.3218 97.468 44.4887 95.4518L45.5389 93.6508C47.5217 90.2516 49.5721 86.731 51.2779 83.1494C56.9224 71.2526 62.5814 59.1132 68.0513 47.3713C70.2094 42.738 72.372 38.1047 74.5392 33.4714C74.721 33.0776 74.9101 32.6955 75.1798 32.1632L75.699 31.1177C75.7823 30.9421 75.9162 30.7954 76.0829 30.6958C76.2503 30.5961 76.4426 30.5483 76.6369 30.5579C76.8305 30.5627 77.0189 30.623 77.179 30.7318C77.3392 30.8406 77.4645 30.9932 77.54 31.1715C78.3362 33.0466 79.1388 34.8607 79.9278 36.6414C81.6408 40.5138 83.2593 44.1677 84.6422 47.9647C87.8051 56.6716 90.9004 65.5545 93.9019 74.1523C95.6215 79.0761 97.3483 84.0019 99.0817 88.9291C99.9382 91.4415 100.938 93.9028 102.076 96.3004C102.45 97.1753 103.024 97.9498 103.753 98.5615C104.482 99.1732 105.344 99.6044 106.271 99.821C108.085 100.179 110.001 99.5512 111.673 98.0607C114.216 95.795 116.745 93.5083 119.274 91.2289C121.493 89.2257 123.711 87.2272 125.93 85.2332C128.756 82.7116 131.591 80.1952 134.435 77.6853L138.241 74.3196C138.382 74.1956 138.553 74.1122 138.738 74.0794C138.922 74.046 139.112 74.0643 139.287 74.1313L139.988 74.4076C140.203 74.4916 140.383 74.6458 140.498 74.846C140.613 75.0462 140.657 75.2792 140.622 75.507C138.551 88.7263 135.637 104.4 129.716 120.384Z" fill="white"/>
</g>
<defs>
<clipPath id="clip0_1_423">
<rect width="152.927" height="135.206" fill="white"/>
</clipPath>
</defs>
</svg>
