<svg width="213" height="132" viewBox="0 0 213 132" fill="none" xmlns="http://www.w3.org/2000/svg">
<path d="M8.68466 37.2827L1.70369 36.6594L3.24117 8.11223C2.52091 8.27844 1.85605 8.47236 1.2466 8.69398L0 1.6299C1.46822 1.32518 3.28272 1.0066 5.4435 0.674173C7.60427 0.341747 9.8343 0.175533 12.1336 0.175533C13.9065 0.175533 15.7072 0.369449 17.5355 0.757281C19.3639 1.11741 21.1091 1.72686 22.7713 2.58563C24.4611 3.4167 25.957 4.53864 27.259 5.95146C28.5887 7.36427 29.6276 9.09566 30.3755 11.1456C31.1512 13.1956 31.539 15.6195 31.539 18.4175C31.539 22.3512 30.9019 25.717 29.6276 28.515C28.381 31.2852 26.5526 33.4044 24.1425 34.8726C21.7601 36.3408 18.8791 37.075 15.4994 37.075C13.2555 37.075 11.0394 36.6594 8.85087 35.8283C8.79547 36.3824 8.74007 36.8672 8.68466 37.2827ZM11.8427 7.1565C11.4549 7.1565 11.0532 7.1565 10.6377 7.1565C10.3606 12.3091 10.1113 16.6999 9.88971 20.3289C9.66809 23.9302 9.47417 26.9359 9.30796 29.346C10.139 29.623 11.0532 29.8724 12.0505 30.094C13.0755 30.2879 14.142 30.3849 15.2501 30.3849C17.494 30.3849 19.2946 29.817 20.652 28.6812C22.0372 27.5454 23.0344 26.0494 23.6439 24.1934C24.2533 22.3096 24.5581 20.2735 24.5581 18.085C24.5581 16.3398 24.2949 14.8577 23.7685 13.6388C23.2422 12.4199 22.5496 11.4088 21.6909 10.6054C20.8598 9.80207 19.9456 9.17877 18.9484 8.73553C17.9511 8.26459 16.9676 7.91832 15.9981 7.6967C15.0562 7.47508 14.2113 7.33657 13.4633 7.28116C12.7153 7.19806 12.1751 7.1565 11.8427 7.1565ZM34.9412 37.2412C35.052 34.9419 35.1351 32.6426 35.1905 30.3433C35.2459 28.044 35.2736 25.7724 35.2736 23.5285C35.2459 21.4786 35.2044 19.4563 35.149 17.4617C35.1213 15.4395 35.052 13.4865 34.9412 11.6027L41.9222 11.395C41.9499 12.4199 41.9914 13.4726 42.0468 14.553C42.9333 13.4449 43.9583 12.5584 45.1218 11.8936C46.313 11.201 47.6704 10.8548 49.194 10.8548C49.7758 10.8548 50.5237 10.9379 51.4379 11.1041C52.3521 11.2703 53.2801 11.5889 54.222 12.0598L53.4325 19.0823C52.7399 18.6668 51.992 18.3759 51.1886 18.2097C50.4129 18.0158 49.7619 17.9188 49.2356 17.9188C47.4626 17.9188 45.9529 18.7222 44.7063 20.3289C43.4874 21.908 42.6563 24.1103 42.2131 26.9359C42.2131 28.8751 42.1854 30.7311 42.13 32.5041C42.1023 34.2493 42.033 35.8283 41.9222 37.2412H34.9412ZM66.3546 37.2827C64.2769 37.2827 62.3932 36.7425 60.7033 35.6621C59.0135 34.6094 57.67 33.1828 56.6727 31.3821C55.7031 29.5538 55.2183 27.5177 55.2183 25.2738C55.2183 23.1684 55.6061 21.2708 56.3818 19.581C57.1575 17.8634 58.2101 16.3952 59.5399 15.1763C60.8973 13.9574 62.4347 13.0294 64.1523 12.3922C65.8698 11.7274 67.6705 11.395 69.5542 11.395C71.1333 11.395 72.6846 11.6166 74.2082 12.0598C74.319 11.4781 74.416 10.8963 74.4991 10.3146L81.6047 11.5196C81.4108 12.046 81.2169 12.8355 81.023 13.8882C80.829 14.9408 80.6628 16.1182 80.5243 17.4202C80.4135 18.7222 80.3166 20.0242 80.2334 21.3262C80.1503 22.6282 80.1088 23.8056 80.1088 24.8583C80.1088 25.717 80.1642 26.5619 80.275 27.393C80.4135 28.1964 80.6905 28.8612 81.1061 29.3876C81.5216 29.8862 82.1588 30.1355 83.0175 30.1355H83.5993L82.5604 37.3658C80.7321 37.3658 79.2223 37.0472 78.0311 36.4101C76.8399 35.8006 75.8842 34.9696 75.1639 33.9169C73.9727 35.2466 72.6153 36.1331 71.0917 36.5763C69.5681 37.0472 67.989 37.2827 66.3546 37.2827ZM62.0331 26.1049C62.1716 27.4346 62.7118 28.5011 63.6536 29.3045C64.6232 30.0801 65.8421 30.468 67.3103 30.468C68.7232 30.468 69.9005 30.094 70.8424 29.346C71.7843 28.5704 72.5599 27.5177 73.1694 26.188C73.1417 25.7447 73.1278 25.2876 73.1278 24.8167C73.1278 23.8471 73.1555 22.8498 73.2109 21.8249C73.2663 20.7999 73.3356 19.7887 73.4187 18.7915C72.2552 18.3482 71.0363 18.1266 69.762 18.1266C68.2661 18.1266 66.9225 18.4313 65.7313 19.0408C64.5678 19.6225 63.6536 20.4397 62.9888 21.4924C62.3239 22.5451 61.9915 23.764 61.9915 25.1491C61.9915 25.3153 61.9915 25.4816 61.9915 25.6478C61.9915 25.814 62.0054 25.9663 62.0331 26.1049ZM95.4219 37.4074C93.1226 37.4074 91.1696 35.6206 89.5628 32.047C89.0088 30.7727 88.524 29.3737 88.1085 27.8501C87.6929 26.3265 87.3328 24.7751 87.0281 23.1961C86.7511 21.6171 86.5156 20.1073 86.3217 18.6668C86.1555 17.1986 86.0169 15.9104 85.9061 14.8023C85.823 13.6665 85.7538 12.8078 85.6984 12.226L92.5131 10.647C92.8456 16.9354 93.3442 21.714 94.009 24.9829C94.7016 28.2518 95.2279 29.8862 95.5881 29.8862C95.782 29.8862 96.0175 29.4984 96.2945 28.7227C96.5992 27.9471 96.9316 26.9221 97.2918 25.6478C97.6519 24.3458 97.9982 22.9191 98.3306 21.3678C98.663 19.8164 98.9539 18.2513 99.2032 16.6722C98.8708 14.65 98.6492 13.0432 98.5384 11.852L105.561 11.6027V12.1014C105.561 13.2372 105.644 14.5669 105.81 16.0905C105.976 17.6141 106.184 19.1931 106.434 20.8276C106.683 22.4343 106.946 23.9302 107.223 25.3153C107.528 26.7005 107.819 27.8224 108.096 28.6812C108.373 29.5399 108.608 29.9693 108.802 29.9693C108.968 29.9693 109.204 29.5953 109.508 28.8474C109.813 28.0994 110.146 27.0744 110.506 25.7724C110.894 24.4704 111.281 22.9883 111.669 21.3262C112.057 19.6364 112.431 17.8634 112.791 16.0074C113.151 14.1236 113.442 12.2537 113.664 10.3977L120.52 11.852C120.049 14.4838 119.481 17.1016 118.816 19.7056C118.179 22.2819 117.501 24.6782 116.78 26.8944C116.06 29.0828 115.354 30.925 114.661 32.421C113.11 35.7175 111.184 37.3658 108.885 37.3658C108.137 37.3658 107.278 37.1304 106.309 36.6594C105.367 36.2162 104.494 35.2743 103.691 33.8338C103.414 33.3074 103.137 32.6703 102.86 31.9223C102.583 31.1744 102.32 30.3433 102.07 29.4291C101.738 30.4541 101.406 31.3683 101.073 32.1717C99.6049 35.6621 97.7212 37.4074 95.4219 37.4074ZM123.852 7.1565C123.852 6.90718 123.838 6.65786 123.81 6.40854C123.81 6.13152 123.81 5.82679 123.81 5.49437C123.81 4.60789 123.838 3.66602 123.893 2.66874C123.949 1.67146 124.004 0.826536 124.06 0.133978L131.456 0.258639C131.373 1.20052 131.276 2.26705 131.165 3.45825C131.082 4.64945 131.027 5.8822 130.999 7.1565H123.852ZM123.686 36.9087C123.603 35.1912 123.547 33.3628 123.519 31.4237C123.492 29.4568 123.478 27.49 123.478 25.5231C123.478 22.9468 123.506 20.4397 123.561 18.0019C123.616 15.5641 123.686 13.348 123.769 11.3534L130.916 11.3118C130.805 12.5861 130.736 14.1652 130.708 16.0489C130.68 17.905 130.667 19.858 130.667 21.908C130.667 23.9302 130.68 25.9248 130.708 27.8917C130.736 29.8585 130.764 31.6453 130.791 33.252C130.847 34.8311 130.888 36.05 130.916 36.9087H123.686ZM135.265 36.9918C135.182 34.554 135.113 32.2963 135.058 30.2186C135.03 28.141 135.016 26.091 135.016 24.0687C135.016 22.0465 135.03 20.0242 135.058 18.0019C135.113 15.952 135.196 13.7635 135.307 11.4365H142.329C142.219 12.6831 142.122 13.9436 142.039 15.2179C142.98 14.0267 144.102 13.0432 145.404 12.2676C146.706 11.4642 148.244 11.0625 150.017 11.0625C151.762 11.0625 153.189 11.3534 154.297 11.9351C155.433 12.5169 156.319 13.3203 156.956 14.3452C157.621 15.3702 158.092 16.5476 158.369 17.8773C158.674 19.1793 158.868 20.5921 158.951 22.1157C159.034 23.6117 159.076 25.1214 159.076 26.645C159.076 28.3072 159.048 29.9001 158.992 31.4237C158.937 32.9473 158.882 34.2216 158.826 35.2466C158.771 36.2716 158.729 36.881 158.702 37.075H151.721C151.776 35.9392 151.831 34.7341 151.887 33.4598C151.942 32.1578 151.998 30.8835 152.053 29.6369C152.108 28.3626 152.136 27.2129 152.136 26.188C152.136 20.2874 151.18 17.3371 149.269 17.3371C147.69 17.3371 146.249 18.0296 144.947 19.4148C143.673 20.7722 142.607 22.4897 141.748 24.5674C141.748 24.8444 141.748 25.1214 141.748 25.3984C141.748 26.7282 141.748 28.1133 141.748 29.5538C141.775 30.9666 141.803 32.324 141.831 33.626C141.886 34.9003 141.928 36.0084 141.956 36.9503L135.265 36.9918ZM172.776 34.2078C171.031 34.2078 169.549 33.9446 168.33 33.4183C167.111 32.8919 166.1 32.2132 165.296 31.3821C164.521 30.5234 163.911 29.6092 163.468 28.6396C163.025 27.6423 162.72 26.6866 162.554 25.7724C162.388 24.8305 162.305 24.0133 162.305 23.3208C162.305 21.9911 162.485 20.6198 162.845 19.207C163.233 17.7942 163.87 16.4783 164.756 15.2594C165.67 14.0405 166.903 13.0571 168.455 12.3091C170.034 11.5612 172.014 11.1872 174.397 11.1872C175.117 11.1872 175.782 11.2426 176.391 11.3534C177.001 11.4642 177.569 11.6166 178.095 11.8105V10.4392H185.284C185.256 12.1014 185.228 13.9851 185.201 16.0905C185.173 18.1682 185.159 20.5228 185.159 23.1546C185.159 24.512 185.159 25.9386 185.159 27.4346C185.187 28.9028 185.201 30.5095 185.201 32.2548C185.201 34.6372 184.882 36.5902 184.245 38.1138C183.608 39.6374 182.79 40.8148 181.793 41.6458C180.796 42.4769 179.757 43.0725 178.677 43.4326C177.624 43.8205 176.641 44.0421 175.726 44.0975C174.84 44.1806 174.175 44.2221 173.732 44.2221C172.651 44.2221 171.46 44.0975 170.158 43.8482C168.856 43.6265 167.554 43.2526 166.252 42.7262C164.95 42.2276 163.759 41.5766 162.679 40.7732L165.712 34.4571C166.405 35.0388 167.097 35.5652 167.79 36.0361C168.482 36.5348 169.286 36.9226 170.2 37.1996C171.114 37.5043 172.25 37.6567 173.607 37.6567C174.992 37.6567 176.017 37.4074 176.682 36.9087C177.347 36.4378 177.776 35.8006 177.97 34.9973C178.192 34.2216 178.317 33.3628 178.344 32.421C177.402 33.1135 176.447 33.5845 175.477 33.8338C174.508 34.0831 173.607 34.2078 172.776 34.2078ZM168.538 22.739C168.538 24.3181 168.967 25.5647 169.826 26.4788C170.712 27.393 171.917 27.8501 173.441 27.8501C175.574 27.8501 177.167 26.6173 178.22 24.1518C178.22 23.2654 178.206 22.365 178.178 21.4509C178.178 20.509 178.164 19.5948 178.136 18.7083C177.028 17.9881 175.754 17.628 174.314 17.628C172.541 17.628 171.128 18.0989 170.075 19.0408C169.05 19.955 168.538 21.1877 168.538 22.739ZM14.5437 84.075C14.3498 81.6649 14.2113 79.324 14.1282 77.0524C14.0728 74.7808 14.045 72.6339 14.045 70.6117C14.045 67.2597 14.1143 64.254 14.2528 61.5946C14.3913 58.9074 14.5298 56.5943 14.6684 54.6551C12.286 54.7937 9.97282 54.9737 7.72893 55.1953C5.48505 55.417 3.40738 55.7078 1.49592 56.068L1.57903 49.1285C4.82019 48.5468 8.14447 48.1313 11.5518 47.8819C14.9592 47.6049 18.3666 47.4664 21.774 47.4664C24.2118 47.4664 26.5388 47.5218 28.755 47.6326C30.9988 47.7434 33.1458 47.9096 35.1957 48.1313L35.1542 55.32C33.215 55.0153 31.1096 54.8075 28.8381 54.6967C26.5942 54.5582 24.2949 54.4889 21.9402 54.4889C21.8017 56.3727 21.677 58.4781 21.5662 60.805C21.4554 63.1043 21.4 65.5698 21.4 68.2016C21.4 70.5562 21.4554 73.0356 21.5662 75.6396C21.7047 78.2436 21.8709 80.9861 22.0649 83.8672L14.5437 84.075ZM38.7615 83.8672C38.7615 82.1773 38.7615 80.0166 38.7615 77.3849C38.7892 74.7254 38.8169 71.7751 38.8446 68.534C38.9 65.2928 38.9693 61.8854 39.0524 58.3118C39.1632 54.7383 39.2879 51.1647 39.4264 47.5911L46.4905 47.5495C46.3797 49.1285 46.2688 51.0539 46.158 53.3254C46.0472 55.597 45.9503 58.0348 45.8672 60.6388C47.7786 58.8659 49.9671 57.9794 52.4326 57.9794C54.1224 57.9794 55.5214 58.2841 56.6295 58.8936C57.7653 59.503 58.6795 60.3064 59.372 61.3037C60.0646 62.2733 60.5909 63.3398 60.951 64.5033C61.3112 65.6668 61.5605 66.8164 61.699 67.9522C61.8375 69.0603 61.9068 70.0438 61.9068 70.9025C61.9068 72.7309 61.8929 74.5454 61.8652 76.346C61.8375 78.1467 61.8098 79.7257 61.7821 81.0831C61.7821 82.4405 61.7821 83.3962 61.7821 83.9503L54.5103 83.9918C54.6211 82.9115 54.6903 81.6649 54.718 80.252C54.7734 78.8392 54.8011 77.3849 54.8011 75.8889C54.8288 74.3653 54.8427 72.9248 54.8427 71.5674C54.8427 67.0796 53.79 64.8357 51.6846 64.8357C51.0475 64.8357 50.3411 65.0019 49.5654 65.3344C48.7898 65.6668 48.0418 66.1931 47.3215 66.9134C46.629 67.6337 46.0749 68.5894 45.6594 69.7806C45.6317 71.6089 45.6178 73.3819 45.6178 75.0994C45.6178 76.6784 45.6317 78.1605 45.6594 79.5456C45.7148 80.903 45.7564 82.2743 45.7841 83.6594L38.7615 83.8672ZM78.5375 84.3243C75.8781 84.3243 73.5373 83.7979 71.515 82.7452C69.5205 81.7203 67.9553 80.2797 66.8195 78.4237C65.7114 76.5676 65.1574 74.4207 65.1574 71.9829C65.1574 70.5147 65.4067 68.9772 65.9053 67.3705C66.404 65.7361 67.2073 64.2124 68.3154 62.7996C69.4235 61.3868 70.8779 60.2372 72.6785 59.3507C74.5069 58.4642 76.723 58.021 79.3271 58.021C81.2108 58.021 82.7898 58.2287 84.0642 58.6443C85.3662 59.0598 86.4188 59.6 87.2222 60.2649C88.0533 60.9297 88.6766 61.6361 89.0921 62.3841C89.5353 63.132 89.8262 63.8523 89.9647 64.5449C90.1309 65.2097 90.2141 65.7638 90.2141 66.207C90.2141 68.8941 89.0783 70.9718 86.8067 72.44C84.5628 73.8805 81.377 74.6008 77.2494 74.6008C76.3075 74.6008 75.4072 74.5592 74.5484 74.4761C73.7174 74.393 72.9417 74.2961 72.2214 74.1852C72.7478 75.5704 73.6204 76.5953 74.8393 77.2602C76.0582 77.8973 77.3186 78.2159 78.6207 78.2159C80.5044 78.2159 82.1665 77.8835 83.6071 77.2186C85.0476 76.5261 86.405 75.4734 87.6793 74.0606L91.3775 79.3794C90.4911 80.0997 89.4938 80.8476 88.3857 81.6233C87.3053 82.399 85.9756 83.0361 84.3966 83.5348C82.8175 84.0611 80.8645 84.3243 78.5375 84.3243ZM79.4517 64.254C77.8173 64.254 76.3768 64.6695 75.1302 65.5006C73.8836 66.3316 72.9694 67.4259 72.3876 68.7833C73.0802 68.8941 73.7589 68.9911 74.4238 69.0742C75.1163 69.1296 75.795 69.1573 76.4599 69.1573C77.0693 69.1573 77.7619 69.1019 78.5375 68.9911C79.3409 68.8803 80.1166 68.714 80.8645 68.4924C81.6402 68.2708 82.2774 67.9938 82.776 67.6614C83.2746 67.3012 83.524 66.8857 83.524 66.4148C83.524 66.1931 83.4131 65.9161 83.1915 65.5837C82.9699 65.2513 82.5682 64.9465 81.9865 64.6695C81.4047 64.3925 80.5598 64.254 79.4517 64.254ZM96.176 83.8672C96.1483 83.5625 96.1344 83.23 96.1344 82.8699C96.1344 82.5098 96.1344 82.0942 96.1344 81.6233C96.1344 80.4321 96.1621 79.0193 96.2175 77.3849C96.273 75.7227 96.3561 73.9636 96.4669 72.1076C96.5777 70.2238 96.6885 68.3401 96.7993 66.4563C96.9101 64.5449 97.0209 62.7165 97.1317 60.9713C97.2702 59.226 97.3949 57.6608 97.5057 56.2757C96.8963 56.4696 96.3561 56.6497 95.8851 56.8159L94.8047 49.8349C97.9351 48.9485 100.844 48.2836 103.531 47.8404C106.246 47.3972 108.697 47.1755 110.886 47.1755C115.346 47.1755 118.753 48.0205 121.108 49.7103C123.463 51.4001 124.64 53.8518 124.64 57.0652C124.64 58.8936 124.238 60.4311 123.435 61.6777C122.632 62.8966 121.496 63.9077 120.028 64.7111C123.629 66.5394 125.43 69.5174 125.43 73.645C125.43 75.4734 125.083 77.0109 124.391 78.2575C123.726 79.4764 122.867 80.4598 121.814 81.2078C120.762 81.9557 119.64 82.5098 118.449 82.8699C117.285 83.2577 116.177 83.5071 115.124 83.6179C114.099 83.7564 113.296 83.8256 112.714 83.8256C111.274 83.8256 109.736 83.6871 108.102 83.4101C106.467 83.1331 104.875 82.7175 103.323 82.1635C103.323 82.7175 103.323 83.2439 103.323 83.7425L96.176 83.8672ZM111.052 54.115C110.055 54.115 109.002 54.1704 107.894 54.2812C106.814 54.3643 105.733 54.5028 104.653 54.6967C104.487 56.719 104.32 59.0737 104.154 61.7608C104.514 61.7885 104.875 61.8023 105.235 61.8023C105.622 61.8023 106.01 61.8023 106.398 61.8023C113.712 61.8023 117.368 60.3064 117.368 57.3146C117.368 56.3173 116.8 55.5416 115.665 54.9876C114.556 54.4058 113.019 54.115 111.052 54.115ZM107.354 68.3678C106.772 68.3678 106.177 68.3678 105.567 68.3678C104.985 68.3678 104.39 68.3816 103.78 68.4093C103.725 69.6282 103.669 70.8471 103.614 72.066C103.586 73.2849 103.545 74.49 103.489 75.6812C105.041 76.1521 106.564 76.4984 108.06 76.72C109.556 76.9139 110.844 77.0109 111.925 77.0109C114.224 77.0109 115.872 76.7339 116.87 76.1798C117.867 75.5981 118.366 74.6562 118.366 73.3542C118.366 71.7474 117.41 70.5147 115.498 69.6559C113.615 68.7972 110.9 68.3678 107.354 68.3678ZM141.553 84.4074C139.336 84.4074 137.397 84.0472 135.735 83.327C134.101 82.6067 132.743 81.6233 131.663 80.3767C130.583 79.1024 129.779 77.648 129.253 76.0136C128.726 74.3792 128.463 72.6616 128.463 70.861C128.463 69.0326 128.782 67.3428 129.419 65.7915C130.084 64.2124 130.984 62.8412 132.12 61.6777C133.284 60.5142 134.641 59.6138 136.192 58.9767C137.744 58.3118 139.433 57.9794 141.262 57.9794C143.173 57.9794 144.946 58.3118 146.581 58.9767C148.215 59.6416 149.642 60.5696 150.861 61.7608C152.079 62.952 153.021 64.3509 153.686 65.9577C154.379 67.5644 154.725 69.3096 154.725 71.1934C154.725 75.3764 153.575 78.6315 151.276 80.9584C148.977 83.2577 145.736 84.4074 141.553 84.4074ZM141.511 77.6757C143.533 77.6757 145.071 77.1078 146.124 75.972C147.204 74.8362 147.744 73.2018 147.744 71.0687C147.744 69.1573 147.162 67.6198 145.999 66.4563C144.835 65.2928 143.312 64.7111 141.428 64.7111C140.292 64.7111 139.253 65.0158 138.311 65.6252C137.37 66.207 136.608 66.9965 136.026 67.9938C135.472 68.9634 135.195 70.0438 135.195 71.235C135.195 72.2876 135.403 73.3126 135.818 74.3099C136.261 75.3072 136.954 76.1244 137.896 76.7616C138.838 77.371 140.043 77.6757 141.511 77.6757ZM168.454 84.2827C167.013 84.2827 165.6 84.0334 164.215 83.5348C162.858 83.0361 161.625 82.2605 160.517 81.2078C159.436 80.1828 158.578 78.8946 157.941 77.3433C157.303 75.7643 156.985 73.9221 156.985 71.8167C156.985 69.4343 157.345 67.3843 158.065 65.6668C158.813 63.9216 159.797 62.4949 161.016 61.3868C162.234 60.251 163.592 59.4061 165.088 58.852C166.584 58.298 168.08 58.021 169.576 58.021C170.462 58.021 171.307 58.0902 172.11 58.2287C172.914 58.3395 173.662 58.5058 174.354 58.7274C174.437 56.7051 174.534 54.669 174.645 52.619C174.784 50.5691 174.936 48.5468 175.102 46.5522L182.083 47.0093C181.861 49.3086 181.668 51.788 181.501 54.4474C181.335 57.0791 181.21 59.7662 181.127 62.5087C181.072 65.2513 181.044 67.9245 181.044 70.5285C181.044 72.9663 181.072 75.2933 181.127 77.5095C181.21 79.698 181.307 81.6926 181.418 83.4932L174.23 84.0334C174.202 83.5071 174.188 82.9946 174.188 82.4959C173.385 83.0223 172.498 83.4517 171.529 83.7841C170.587 84.1165 169.562 84.2827 168.454 84.2827ZM163.675 71.4427C163.675 72.8832 163.952 74.019 164.506 74.8501C165.06 75.6535 165.739 76.2214 166.542 76.5538C167.345 76.8862 168.121 77.0524 168.869 77.0524C169.756 77.0524 170.642 76.8585 171.529 76.4707C172.415 76.0828 173.246 75.4041 174.022 74.4346C174.022 74.1021 174.022 73.7836 174.022 73.4788C174.022 71.235 174.049 68.9357 174.105 66.581C172.803 65.4452 171.39 64.8773 169.866 64.8773C169.229 64.8773 168.551 64.9742 167.83 65.1682C167.11 65.3621 166.431 65.7083 165.794 66.207C165.185 66.6779 164.672 67.3428 164.257 68.2016C163.869 69.0326 163.675 70.113 163.675 71.4427ZM192.062 92.261L185.829 88.9367C187.381 87.2192 188.89 85.4462 190.359 83.6179C191.827 81.8172 193.226 79.9612 194.556 78.0497C193.254 76.3045 191.952 74.4346 190.65 72.44C189.348 70.4177 188.143 68.437 187.034 66.4979C185.926 64.5587 185.026 62.8273 184.333 61.3037L190.982 58.395C191.481 59.7247 192.118 61.1652 192.893 62.7165C193.697 64.2678 194.569 65.8469 195.511 67.4536C196.481 69.0603 197.478 70.5978 198.503 72.066C201.495 67.2181 203.961 62.4395 205.9 57.7301L212.798 60.4726C211.551 62.855 210.138 65.4175 208.559 68.16C207.008 70.8748 205.332 73.645 203.531 76.4707C201.758 79.2686 199.902 82.0111 197.963 84.6983C196.024 87.4131 194.057 89.934 192.062 92.261ZM18.3666 131.324C14.9869 131.324 12.0505 130.576 9.55728 129.08C7.06408 127.612 5.13877 125.534 3.78136 122.847C2.42395 120.16 1.74524 116.988 1.74524 113.332C1.74524 111.947 1.91146 110.409 2.24388 108.719C2.60401 107.002 3.17191 105.298 3.94757 103.608C4.72324 101.891 5.76207 100.325 7.06408 98.9126C8.36608 97.4998 9.95896 96.364 11.8427 95.5052C13.7265 94.6188 15.9427 94.1755 18.4913 94.1755C20.6797 94.1755 22.5912 94.4526 24.2256 95.0066C25.8601 95.5329 27.2729 96.2116 28.4641 97.0427C29.6553 97.8461 30.6387 98.691 31.4144 99.5775C32.2177 100.464 32.8549 101.281 33.3258 102.029C33.7968 102.749 34.143 103.276 34.3647 103.608L28.3394 108.221C27.73 107.085 27.0097 105.977 26.1786 104.896C25.3476 103.788 24.3226 102.874 23.1037 102.154C21.8848 101.434 20.375 101.073 18.5744 101.073C16.7183 101.073 15.1808 101.489 13.9619 102.32C12.743 103.151 11.7735 104.204 11.0532 105.478C10.3606 106.752 9.87586 108.11 9.59884 109.55C9.32181 110.963 9.1833 112.279 9.1833 113.498C9.1833 114.8 9.32181 116.088 9.59884 117.362C9.87586 118.637 10.3468 119.8 11.0117 120.853C11.7042 121.906 12.6184 122.75 13.7542 123.388C14.9177 123.997 16.372 124.302 18.1173 124.302C20.0564 124.302 21.6355 123.955 22.8544 123.263C24.101 122.57 25.1398 121.601 25.9709 120.354C26.8019 119.08 27.5776 117.598 28.2979 115.908L35.1126 118.983C33.8937 121.504 32.5225 123.692 30.9988 125.548C29.4752 127.404 27.6884 128.831 25.6384 129.828C23.5885 130.826 21.1645 131.324 18.3666 131.324ZM51.385 131.407C49.1688 131.407 47.2297 131.047 45.5675 130.327C43.9331 129.607 42.5757 128.623 41.4953 127.377C40.4149 126.102 39.6115 124.648 39.0852 123.014C38.5588 121.379 38.2957 119.662 38.2957 117.861C38.2957 116.033 38.6143 114.343 39.2514 112.791C39.9163 111.212 40.8166 109.841 41.9524 108.678C43.1159 107.514 44.4733 106.614 46.0246 105.977C47.5759 105.312 49.2658 104.979 51.0941 104.979C53.0056 104.979 54.7785 105.312 56.413 105.977C58.0474 106.642 59.4741 107.57 60.693 108.761C61.9119 109.952 62.8537 111.351 63.5186 112.958C64.2111 114.564 64.5574 116.31 64.5574 118.193C64.5574 122.376 63.4078 125.631 61.1085 127.958C58.8092 130.258 55.568 131.407 51.385 131.407ZM51.3434 124.676C53.3657 124.676 54.9032 124.108 55.9559 122.972C57.0363 121.836 57.5765 120.202 57.5765 118.069C57.5765 116.157 56.9947 114.62 55.8312 113.456C54.6677 112.293 53.1441 111.711 51.2603 111.711C50.1245 111.711 49.0857 112.016 48.1438 112.625C47.202 113.207 46.4401 113.997 45.8584 114.994C45.3044 115.963 45.0273 117.044 45.0273 118.235C45.0273 119.288 45.2351 120.313 45.6506 121.31C46.0939 122.307 46.7864 123.124 47.7283 123.762C48.6702 124.371 49.8752 124.676 51.3434 124.676ZM77.0393 131.407C75.2664 131.407 73.7982 131.089 72.6347 130.452C71.4989 129.842 70.5847 128.997 69.8922 127.917C69.2273 126.837 68.7287 125.631 68.3962 124.302C68.0915 122.944 67.8837 121.545 67.7729 120.105C67.6898 118.637 67.6483 117.224 67.6483 115.866C67.6483 114.315 67.6898 112.736 67.7729 111.129C67.8837 109.523 67.9946 107.763 68.1054 105.852L75.7096 105.395C75.6265 105.977 75.5019 106.849 75.3357 108.013C75.1694 109.176 75.0171 110.506 74.8786 112.002C74.7401 113.498 74.6708 115.063 74.6708 116.697C74.6708 119.385 74.9063 121.379 75.3772 122.681C75.8482 123.955 76.5546 124.593 77.4964 124.593C79.3802 124.593 80.7653 123.221 81.6518 120.479C82.5382 117.736 82.9815 113.401 82.9815 107.473V105.561L86.5135 105.478L90.7935 105.395C90.4057 107.999 90.1148 110.395 89.9209 112.584C89.727 114.772 89.6023 116.614 89.5469 118.11C89.4915 119.579 89.4638 120.562 89.4638 121.061C89.4638 122.335 89.5746 123.249 89.7962 123.803C90.0179 124.329 90.4057 124.593 90.9597 124.593C91.2368 124.593 91.5415 124.537 91.8739 124.426C92.2063 124.316 92.5942 124.122 93.0374 123.845L92.7465 130.992C91.6938 131.158 90.7797 131.241 90.004 131.241C88.6743 131.241 87.5801 130.992 86.7213 130.493C85.8902 129.995 85.2254 129.33 84.7267 128.499C83.868 129.413 82.8014 130.119 81.5271 130.618C80.2805 131.144 78.7846 131.407 77.0393 131.407ZM96.2974 131.241C96.4082 128.942 96.4913 126.643 96.5467 124.343C96.6021 122.044 96.6298 119.772 96.6298 117.529C96.6021 115.479 96.5606 113.456 96.5052 111.462C96.4775 109.439 96.4082 107.486 96.2974 105.603L103.278 105.395C103.306 106.42 103.348 107.473 103.403 108.553C104.29 107.445 105.314 106.558 106.478 105.894C107.669 105.201 109.027 104.855 110.55 104.855C111.132 104.855 111.88 104.938 112.794 105.104C113.708 105.27 114.636 105.589 115.578 106.06L114.789 113.082C114.096 112.667 113.348 112.376 112.545 112.21C111.769 112.016 111.118 111.919 110.592 111.919C108.819 111.919 107.309 112.722 106.062 114.329C104.844 115.908 104.012 118.11 103.569 120.936C103.569 122.875 103.542 124.731 103.486 126.504C103.458 128.249 103.389 129.828 103.278 131.241H96.2974ZM129.498 131.449C127.614 131.449 125.869 131.227 124.262 130.784C122.655 130.341 121.201 129.773 119.899 129.08C118.597 128.388 117.433 127.654 116.408 126.878L120.148 120.853C121.312 121.933 122.434 122.764 123.514 123.346C124.594 123.928 125.716 124.329 126.88 124.551C128.071 124.773 129.359 124.883 130.744 124.883C131.935 124.883 132.891 124.731 133.611 124.426C134.332 124.094 134.692 123.678 134.692 123.18C134.692 122.764 134.345 122.446 133.653 122.224C132.96 121.975 132.074 121.767 130.994 121.601C129.913 121.407 128.777 121.171 127.586 120.894C125.896 120.451 124.317 119.939 122.849 119.357C121.381 118.775 120.19 117.986 119.275 116.988C118.389 115.991 117.946 114.661 117.946 112.999C117.946 111.67 118.264 110.506 118.901 109.509C119.539 108.484 120.384 107.639 121.436 106.974C122.517 106.281 123.736 105.769 125.093 105.437C126.45 105.104 127.849 104.938 129.29 104.938C131.783 104.938 133.93 105.243 135.731 105.852C137.559 106.434 139.304 107.209 140.966 108.179L137.185 113.913C136.354 113.332 135.398 112.833 134.318 112.417C133.265 111.974 132.199 111.642 131.118 111.42C130.065 111.171 129.082 111.046 128.168 111.046C127.171 111.046 126.381 111.199 125.799 111.503C125.245 111.808 124.968 112.237 124.968 112.791C124.968 113.124 125.315 113.442 126.007 113.747C126.727 114.024 128.085 114.398 130.079 114.869C131.271 115.146 132.531 115.437 133.861 115.742C135.19 116.019 136.437 116.42 137.601 116.947C138.792 117.445 139.747 118.18 140.468 119.149C141.216 120.091 141.59 121.351 141.59 122.93C141.59 125.59 140.523 127.668 138.39 129.163C136.257 130.687 133.293 131.449 129.498 131.449ZM157.343 131.324C154.683 131.324 152.343 130.798 150.32 129.745C148.326 128.72 146.761 127.28 145.625 125.424C144.517 123.568 143.963 121.421 143.963 118.983C143.963 117.515 144.212 115.977 144.711 114.37C145.209 112.736 146.013 111.212 147.121 109.8C148.229 108.387 149.683 107.237 151.484 106.351C153.312 105.464 155.528 105.021 158.132 105.021C160.016 105.021 161.595 105.229 162.87 105.644C164.172 106.06 165.224 106.6 166.028 107.265C166.859 107.93 167.482 108.636 167.897 109.384C168.341 110.132 168.632 110.852 168.77 111.545C168.936 112.21 169.019 112.764 169.019 113.207C169.019 115.894 167.884 117.972 165.612 119.44C163.368 120.881 160.182 121.601 156.055 121.601C155.113 121.601 154.213 121.559 153.354 121.476C152.523 121.393 151.747 121.296 151.027 121.185C151.553 122.57 152.426 123.595 153.645 124.26C154.864 124.897 156.124 125.216 157.426 125.216C159.31 125.216 160.972 124.883 162.412 124.219C163.853 123.526 165.21 122.473 166.485 121.061L170.183 126.379C169.296 127.1 168.299 127.848 167.191 128.623C166.111 129.399 164.781 130.036 163.202 130.535C161.623 131.061 159.67 131.324 157.343 131.324ZM158.257 111.254C156.623 111.254 155.182 111.67 153.936 112.501C152.689 113.332 151.775 114.426 151.193 115.783C151.886 115.894 152.564 115.991 153.229 116.074C153.922 116.13 154.6 116.157 155.265 116.157C155.875 116.157 156.567 116.102 157.343 115.991C158.146 115.88 158.922 115.714 159.67 115.492C160.446 115.271 161.083 114.994 161.581 114.661C162.08 114.301 162.329 113.886 162.329 113.415C162.329 113.193 162.219 112.916 161.997 112.584C161.775 112.251 161.374 111.947 160.792 111.67C160.21 111.392 159.365 111.254 158.257 111.254Z" fill="#F8EFE5"/>
</svg>
