<svg width="30" height="30" viewBox="0 0 30 30" fill="none" xmlns="http://www.w3.org/2000/svg">
<g id="icon">
<path id="Subtract" fill-rule="evenodd" clip-rule="evenodd" d="M23 3H8C5.23858 3 3 5.23858 3 8V23C3 25.7614 5.23858 28 8 28H23C25.7614 28 28 25.7614 28 23V8C28 5.23858 25.7614 3 23 3ZM21.24 12.3256C21.5579 11.9169 21.4843 11.3279 21.0756 11.01C20.6669 10.6921 20.0779 10.7658 19.76 11.1745L14.7512 17.6143C14.6399 17.7575 14.4304 17.7761 14.2955 17.6547L11.1272 14.8032C10.7423 14.4568 10.1495 14.488 9.80317 14.8729C9.4568 15.2577 9.488 15.8505 9.87285 16.1969L13.0412 19.0484C13.9851 19.8979 15.4516 19.7678 16.2313 18.7654L21.24 12.3256Z" fill="#D7A36A"/>
</g>
</svg>
