<svg width="30" height="30" viewBox="0 0 30 30" fill="none" xmlns="http://www.w3.org/2000/svg">
<g id="icon">
<path id="Subtract" fill-rule="evenodd" clip-rule="evenodd" d="M25.9509 23.0135C25.9509 25.7675 23.6114 28 20.7254 28H10.2746C7.38863 28 5.04912 25.7675 5.04912 23.0135V16.9163C5.04912 16.031 4.68059 15.182 4.02461 14.556C2.50476 13.1056 2.70234 10.7026 4.44063 9.49614L12.4265 3.95374C14.2588 2.68209 16.7412 2.68209 18.5735 3.95374L26.5594 9.49614C28.2977 10.7026 28.4952 13.1056 26.9754 14.556C26.3194 15.182 25.9509 16.031 25.9509 16.9163V23.0135ZM15.5 23C16.8807 23 18 21.8807 18 20.5C18 19.1193 16.8807 18 15.5 18C14.1193 18 13 19.1193 13 20.5C13 21.8807 14.1193 23 15.5 23Z" fill="#D7A36A"/>
</g>
</svg>
