<svg width="100" height="100" viewBox="0 0 100 100" fill="none" xmlns="http://www.w3.org/2000/svg">
<path d="M100 50C100 22.3858 77.6142 0 50 0C22.3858 0 0 22.3858 0 50C0 77.6142 22.3858 100 50 100H100V50Z" fill="#D7A36A"/>
<path d="M79 55.25C79 63.9519 72.0478 71 63.4643 71H62.4286C60.1371 71 58.2857 69.1231 58.2857 66.8C58.2857 64.4769 60.1371 62.6 62.4286 62.6H63.4643C67.4647 62.6 70.7143 59.3056 70.7143 55.25V54.2H62.4286C57.8585 54.2 54.1429 50.4331 54.1429 45.8V37.4C54.1429 32.7669 57.8585 29 62.4286 29H70.7143C75.2844 29 79 32.7669 79 37.4V55.25ZM45.8571 55.25C45.8571 63.9519 38.9049 71 30.3214 71H29.2857C26.9942 71 25.1429 69.1231 25.1429 66.8C25.1429 64.4769 26.9942 62.6 29.2857 62.6H30.3214C34.3219 62.6 37.5714 59.3056 37.5714 55.25V54.2H29.2857C24.7156 54.2 21 50.4331 21 45.8V37.4C21 32.7669 24.7156 29 29.2857 29H37.5714C42.1415 29 45.8571 32.7669 45.8571 37.4V55.25Z" fill="white"/>
</svg>
