<svg width="30" height="30" viewBox="0 0 30 30" fill="none" xmlns="http://www.w3.org/2000/svg">
<g id="icon">
<g id="apps">
<path id="combo shape" fill-rule="evenodd" clip-rule="evenodd" d="M5.5 3C4.11929 3 3 4.11929 3 5.5V10.5C3 11.8807 4.11929 13 5.5 13H10.5C11.8807 13 13 11.8807 13 10.5V5.5C13 4.11929 11.8807 3 10.5 3H5.5ZM23 13C25.7614 13 28 10.7614 28 8C28 5.23858 25.7614 3 23 3C20.2386 3 18 5.23858 18 8C18 10.7614 20.2386 13 23 13ZM13 23C13 25.7614 10.7614 28 8 28C5.23858 28 3 25.7614 3 23C3 20.2386 5.23858 18 8 18C10.7614 18 13 20.2386 13 23ZM20.5 18C19.1193 18 18 19.1193 18 20.5V25.5C18 26.8807 19.1193 28 20.5 28H25.5C26.8807 28 28 26.8807 28 25.5V20.5C28 19.1193 26.8807 18 25.5 18H20.5Z" fill="#D7A36A"/>
</g>
</g>
</svg>
