<svg width="159" height="158" viewBox="0 0 159 158" fill="none" xmlns="http://www.w3.org/2000/svg">
<g clip-path="url(#clip0_1_437)">
<path d="M131.053 138.864C131.509 142.569 132.043 145.989 132.322 149.431C132.626 153.172 130.878 155.38 127.325 155.69C120.728 156.265 114.117 156.675 107.511 157.144C107.064 157.175 106.613 157.156 106.164 157.152C101.325 157.114 99.7074 155.42 99.8203 150.641C99.8859 147.836 99.8432 145.028 99.8308 142.221C99.8071 141.811 99.7573 141.401 99.6818 140.996H54.5138C54.7284 142.608 54.9529 143.78 55.0264 144.961C55.2643 147.301 55.35 149.655 55.2829 152.006C55.0933 154.791 53.4013 156.474 50.7458 156.491C44.1226 156.535 37.4877 156.569 30.8777 156.249C26.1679 156.02 25.2082 154.555 25.3513 149.752C25.4373 146.837 25.3671 143.918 25.3671 140.59C23.0621 140.288 20.7726 139.987 18.4879 139.69C14.9004 139.223 11.4566 138.377 8.29966 136.469C6.88545 135.66 5.65295 134.568 4.67874 133.262C3.70453 131.956 3.00948 130.462 2.63682 128.876C0.876733 121.555 0.0606573 114.039 0.208401 106.511C0.30357 94.7235 0.602079 82.9377 0.753696 71.1505C0.944034 56.2276 1.03855 41.3024 1.24595 26.3793C1.32668 20.5976 3.50582 15.4677 6.51972 10.6272C9.63209 5.62783 14.3957 3.32605 19.97 2.7511C26.6646 2.06391 33.3941 1.52253 40.1196 1.37289C50.3361 1.14973 60.5638 1.4694 70.7826 1.283C80.6604 1.10316 90.5311 0.331844 100.408 0.262273C112.751 0.17498 125.101 0.415848 137.44 0.795868C140.398 0.887099 143.382 1.90062 146.248 2.8208C148.034 3.37244 149.647 4.37658 150.929 5.73587C152.212 7.09514 153.122 8.76323 153.57 10.5779C155.164 16.2001 156.518 21.8965 156.423 27.7878C156.232 39.573 155.701 51.3569 155.743 63.1394C155.775 73.0119 156.351 82.8852 156.806 92.7525C157.193 101.154 158.358 109.516 157.189 117.955C156.45 123.447 153.964 128.555 150.1 132.526C147.278 135.506 143.547 136.776 139.634 137.514C136.798 138.046 133.931 138.417 131.053 138.864ZM118.316 133.2C125.021 132.846 131.705 131.815 138.36 130.85C143.309 130.133 146.412 126.987 147.655 122.235C148.435 119.544 148.852 116.76 148.897 113.958C148.792 105.881 148.495 97.8077 148.007 89.736C147.35 78.8487 147.355 67.9778 147.729 57.0789C148.123 45.6396 148.105 34.1846 148.156 22.7361C148.163 20.855 147.627 18.966 147.294 17.0915C146.466 12.419 143.816 9.71419 138.949 9.36174C137.612 9.2646 136.29 8.86036 134.955 8.81967C126.204 8.5532 117.448 8.06291 108.702 8.17646C85.2299 8.48277 61.7605 8.95488 38.2942 9.59284C32.0321 9.76611 25.791 10.8045 19.5479 11.5114C16.135 11.8973 13.7559 13.8807 12.3034 16.8854C10.2483 21.0211 9.10919 25.5512 8.96387 30.167C8.74269 39.0236 8.41314 47.8784 8.25365 56.7363C7.95108 73.579 7.59731 90.4232 7.56318 107.267C7.55137 112.846 8.47694 118.43 8.91799 124.015C9.33543 129.301 12.302 132.082 17.3926 132.872C18.2786 133.01 19.1502 133.287 20.0389 133.35C26.5288 133.809 33.0168 134.477 39.5145 134.607C49.9536 134.815 102.509 134.032 118.316 133.2ZM123.148 139.421L105.509 140.572L106.887 149.765L123.15 148.699L123.148 139.421ZM47.491 150.155C47.3178 146.939 47.1693 144.2 47.0039 141.137H30.4169C30.7202 144.185 31.0011 147.005 31.2834 149.842C32.0782 149.985 32.88 150.086 33.6855 150.143C38.1315 150.165 42.5783 150.155 47.491 150.155Z" fill="white"/>
<path d="M102.913 74.4353C101.962 78.0753 101.419 81.5487 100.124 84.7142C98.872 87.7721 96.8466 90.5136 95.0567 93.5747C95.757 94.3361 96.3937 95.1532 96.9601 96.0189C97.6447 97.035 98.1015 98.1868 98.299 99.3958C98.3594 100.044 98.2308 100.695 97.9289 101.272C97.6276 101.848 97.1655 102.324 96.5985 102.643C96.032 102.963 95.3849 103.111 94.7358 103.071C94.086 103.03 93.4625 102.802 92.94 102.415C91.2821 101.222 90.1178 99.3479 88.7585 97.812L72.1584 102.268C72.1584 102.773 72.1367 103.637 72.1643 104.5C72.1899 105.288 72.2818 106.067 72.3205 106.851C72.5109 110.653 70.9993 113.028 68.311 113.168C65.5583 113.312 63.8078 110.834 63.8479 106.867C63.8623 105.308 63.8479 103.749 63.8479 101.841C57.8968 100.982 51.9485 99.9524 46.5488 96.3642C45.0859 97.7543 43.6943 99.1772 42.1913 100.471C41.1397 101.467 39.9511 102.307 38.6615 102.965C38.0055 103.315 37.2478 103.426 36.5191 103.277C35.7905 103.129 35.1364 102.731 34.6696 102.152C34.1626 101.61 33.8549 100.913 33.797 100.173C33.7391 99.4339 33.9347 98.6961 34.3514 98.0825C35.0777 96.9621 35.9446 95.9389 36.9308 95.0377C38.0892 93.9948 39.4354 93.1606 40.7723 92.182C39.3002 89.5481 37.631 87.0553 36.4693 84.3447C35.3365 81.7003 34.7215 78.8314 33.8026 75.8123C32.1152 75.9055 30.2466 76.0892 28.378 76.0827C27.0375 76.0558 25.702 75.9107 24.3868 75.6495C23.7616 75.5845 23.1835 75.2872 22.7676 74.8153C22.3517 74.344 22.1283 73.7336 22.1415 73.1049C22.0739 72.4197 22.2798 71.7344 22.7146 71.1995C23.1493 70.6653 23.7777 70.324 24.4629 70.2498C26.7745 69.8186 29.1262 69.6027 31.4641 69.3191C32.2353 69.2253 33.0164 69.2056 34.1551 69.1262C35.3661 62.4712 37.6804 56.2347 42.282 51.0772C41.0205 49.7803 39.8731 48.5903 38.7141 47.4135C37.9264 46.6141 37.0607 45.8835 36.3394 45.0303C34.8921 43.3205 34.7564 41.7302 35.842 40.4891C36.898 39.2821 38.7246 39.0878 40.4179 40.3795C42.721 42.1371 44.8416 44.1351 47.3048 46.2577C52.7636 41.8202 59.6617 40.4044 66.531 38.0751C66.6307 36.6679 66.7042 35.2411 66.8408 33.8201C66.9792 32.3703 66.9136 30.8193 67.4413 29.5164C67.8351 28.5431 68.9778 27.3407 69.8842 27.254C70.807 27.1654 72.1111 28.1191 72.7635 28.9822C73.3779 29.7954 73.4448 31.0739 73.603 32.1693C73.8399 33.8194 73.9463 35.4877 74.1281 37.3813C81.0853 37.5375 86.865 40.2357 91.9148 44.7637C92.625 44.1534 93.2314 43.673 93.7893 43.1413C94.4385 42.5224 95.0298 41.843 95.6724 41.2162C98.3397 38.6139 100.989 38.0908 102.756 39.8012C104.634 41.6179 104.037 44.2742 101.071 47.0118C99.7653 48.2175 98.3771 49.3352 97.3139 50.2469C100.344 55.1556 103.352 59.6935 103.363 68.4665C103.921 68.4383 105.101 68.3136 106.279 68.3353C107.947 68.3346 109.614 68.4344 111.271 68.6332C111.955 68.7146 112.582 69.0513 113.029 69.5757C113.476 70.0995 113.709 70.7729 113.681 71.4607C113.738 72.1479 113.537 72.8318 113.118 73.3786C112.699 73.926 112.091 74.2981 111.413 74.4221C109.771 74.6991 108.107 74.8225 106.442 74.7923C105.26 74.7398 104.082 74.621 102.913 74.4353ZM66.3741 95.0246C74.0322 94.852 79.5324 93.9482 84.7358 91.5998C86.9168 90.6757 88.8589 89.2659 90.4138 87.4793C91.9693 85.6921 93.0969 83.5741 93.7112 81.2861C96.2939 72.3219 94.8657 63.8934 89.804 56.1874C86.9601 51.8555 78.9489 43.0042 63.0406 45.8619C62.1628 45.9801 61.3012 46.1973 60.4722 46.5091C49.1281 51.4415 42.8214 60.0533 42.0351 72.4216C41.4128 82.2181 47.0304 90.3101 56.439 93.1114C60.2734 94.2508 64.329 94.6446 66.3761 95.0246H66.3741Z" fill="white"/>
<path d="M139.824 75.5059C139.824 81.7851 139.808 88.0642 139.832 94.3428C139.842 97.1729 139.019 98.5289 136.287 99.2541C134.454 99.7661 132.563 100.047 130.66 100.09C126.775 100.116 123.394 96.6642 123.228 92.4217C123.102 89.18 123.331 85.9239 123.465 82.6744C123.805 74.4984 124.179 66.3231 124.544 58.1485C124.594 57.0288 124.754 55.9071 124.712 54.792C124.594 51.6416 126.622 49.9876 130.155 49.7815C131.94 49.6771 133.742 49.8208 135.534 49.8858C137.962 49.9731 138.733 50.5232 139.078 53.0022C139.446 55.6654 139.657 58.3482 139.71 61.0363C139.807 65.8577 139.738 70.6844 139.738 75.5046L139.824 75.5059ZM131.119 91.491C133.346 91.8008 133.299 90.6942 133.318 89.6677C133.531 78.4561 133.736 67.2432 133.934 56.0311C133.889 55.4729 133.793 54.9201 133.646 54.3799H130.52C130.722 66.875 130.92 79.1479 131.119 91.4943V91.491Z" fill="white"/>
<path d="M52.2784 70.5563C52.3132 67.9099 52.977 65.3093 54.2152 62.9698C55.4533 60.6302 57.2301 58.6188 59.3989 57.1015C60.8718 56.1002 62.5836 55.5067 64.3602 55.3812C66.9364 55.2404 69.5198 55.3688 72.069 55.7645C81.1586 57.0155 85.7293 66.2776 81.1921 74.2731C77.6019 80.6029 71.6476 82.4039 64.8734 82.2385C61.93 82.1899 59.0695 81.2546 56.6652 79.556C53.5627 77.3599 52.2351 74.3027 52.2784 70.5563ZM65.4916 75.385C67.8553 75.4578 70.18 74.7674 72.1208 73.416C75.6933 70.6068 75.1242 65.6181 70.8797 64.1033C68.49 63.2501 65.8778 63.0006 63.352 62.5589C62.7964 62.4376 62.2157 62.5223 61.7179 62.797C61.22 63.0718 60.8389 63.5181 60.6454 64.0528C60.1855 64.9463 59.771 65.8622 59.4036 66.7975C57.579 72.1971 59.8209 75.3384 65.4916 75.3817V75.385Z" fill="white"/>
</g>
<defs>
<clipPath id="clip0_1_437">
<rect width="158.177" height="157.521" fill="white"/>
</clipPath>
</defs>
</svg>
