<svg width="30" height="30" viewBox="0 0 30 30" fill="none" xmlns="http://www.w3.org/2000/svg">
<g id="icon">
<g id="agenda">
<path id="Subtract" fill-rule="evenodd" clip-rule="evenodd" d="M21.1869 2.9375C21.1869 2.41973 20.7672 2 20.2494 2C19.7316 2 19.3119 2.41973 19.3119 2.9375V4.8125H11.1869V2.9375C11.1869 2.41973 10.7672 2 10.2494 2C9.73162 2 9.31189 2.41973 9.31189 2.9375V4.8125H9C6.23858 4.8125 4 7.05108 4 9.8125V22.9375C4 25.6989 6.23858 27.9375 9 27.9375H21.5C24.2614 27.9375 26.5 25.6989 26.5 22.9375V9.8125C26.5 7.05108 24.2614 4.8125 21.5 4.8125H21.1869V2.9375ZM10.25 10.75C9.73223 10.75 9.3125 11.1697 9.3125 11.6875C9.3125 12.2053 9.73223 12.625 10.25 12.625H15.25C15.7678 12.625 16.1875 12.2053 16.1875 11.6875C16.1875 11.1697 15.7678 10.75 15.25 10.75H10.25ZM9.3125 16.6875C9.3125 16.1697 9.73223 15.75 10.25 15.75H20.25C20.7678 15.75 21.1875 16.1697 21.1875 16.6875C21.1875 17.2053 20.7678 17.625 20.25 17.625H10.25C9.73223 17.625 9.3125 17.2053 9.3125 16.6875ZM10.25 20.75C9.73223 20.75 9.3125 21.1697 9.3125 21.6875C9.3125 22.2053 9.73223 22.625 10.25 22.625H20.25C20.7678 22.625 21.1875 22.2053 21.1875 21.6875C21.1875 21.1697 20.7678 20.75 20.25 20.75H10.25Z" fill="#D7A36A"/>
</g>
</g>
</svg>
