<svg width="30" height="30" viewBox="0 0 30 30" fill="none" xmlns="http://www.w3.org/2000/svg">
<g id="icon">
<g id="globe">
<path id="Subtract" fill-rule="evenodd" clip-rule="evenodd" d="M12.8002 6.82816C12.3509 7.96052 11.9852 9.336 11.7381 10.8802C12.9336 10.7707 14.1967 10.7124 15.5 10.7124C16.8033 10.7124 18.0664 10.7707 19.2619 10.8802C19.0148 9.336 18.6492 7.96052 18.1999 6.82816C17.7681 5.73978 17.2776 4.92326 16.7816 4.39449C16.2875 3.86775 15.8541 3.69083 15.5 3.69083C15.146 3.69083 14.7126 3.86775 14.2184 4.39449C13.7224 4.92326 13.232 5.73978 12.8002 6.82816ZM11.0366 6.11696C10.476 7.52986 10.0458 9.23187 9.78219 11.1135C8.48444 11.3064 7.30014 11.5639 6.27296 11.8745C5.07779 12.236 4.04141 12.6855 3.28261 13.2281C3.18675 13.2966 3.09213 13.3691 3.00006 13.4454C3.83762 8.22608 7.81393 4.067 12.9136 3C12.8883 3.02595 12.8632 3.05219 12.8384 3.0787C12.1224 3.84197 11.5214 4.89506 11.0366 6.11696ZM18.0864 3C18.1117 3.02595 18.1368 3.05219 18.1617 3.0787C18.8777 3.84197 19.4787 4.89506 19.9635 6.11696C20.5241 7.52986 20.9542 9.23187 21.2179 11.1135C22.5156 11.3064 23.6999 11.5639 24.7271 11.8745C25.9223 12.236 26.9586 12.6855 27.7174 13.2281C27.8133 13.2966 27.9079 13.3691 28 13.4454C27.1624 8.22608 23.1861 4.06699 18.0864 3ZM28.0001 17.5542C27.908 17.6306 27.8133 17.703 27.7174 17.7716C26.9586 18.3142 25.9223 18.7636 24.7271 19.1251C23.6999 19.4358 22.5156 19.6932 21.2179 19.8862C20.9542 21.7678 20.5241 23.4698 19.9635 24.8827C19.4787 26.1046 18.8777 27.1577 18.1617 27.921C18.1367 27.9476 18.1115 27.974 18.086 28C23.1861 26.9332 27.1626 22.7738 28.0001 17.5542ZM12.914 28C12.8886 27.974 12.8634 27.9476 12.8384 27.921C12.1224 27.1577 11.5214 26.1046 11.0366 24.8827C10.476 23.4698 10.0458 21.7678 9.78219 19.8862C8.48444 19.6932 7.30013 19.4358 6.27296 19.1251C5.07779 18.7636 4.04141 18.3142 3.28261 17.7716C3.18673 17.703 3.09209 17.6306 3 17.5542C3.83746 22.7738 7.814 26.9332 12.914 28ZM6.81877 17.2909C7.62438 17.5346 8.55128 17.7458 9.57291 17.9153C9.51508 17.13 9.48506 16.3227 9.48506 15.4998C9.48506 14.677 9.51508 13.8696 9.57291 13.0844C8.55128 13.2539 7.62438 13.4651 6.81877 13.7088C5.72237 14.0404 4.90429 14.4162 4.38151 14.79C3.83406 15.1815 3.78666 15.4352 3.78666 15.4998C3.78666 15.5644 3.83406 15.8182 4.38151 16.2096C4.90429 16.5835 5.72237 16.9593 6.81877 17.2909ZM11.3845 15.4998C11.3845 16.4206 11.4243 17.3148 11.4992 18.1723C12.7479 18.3014 14.0936 18.3723 15.5 18.3723C16.9065 18.3723 18.2522 18.3014 19.5008 18.1723C19.5757 17.3148 19.6155 16.4206 19.6155 15.4998C19.6155 14.5791 19.5757 13.6849 19.5008 12.8273C18.2522 12.6983 16.9065 12.6274 15.5 12.6274C14.0936 12.6274 12.7479 12.6983 11.4992 12.8273C11.4243 13.6849 11.3845 14.5791 11.3845 15.4998ZM12.8002 24.1715C12.3509 23.0391 11.9852 21.6637 11.7381 20.1195C12.9336 20.229 14.1967 20.2873 15.5 20.2873C16.8033 20.2873 18.0664 20.229 19.2619 20.1195C19.0148 21.6637 18.6492 23.0391 18.1999 24.1715C17.7681 25.2599 17.2776 26.0764 16.7816 26.6052C16.2875 27.1319 15.8541 27.3088 15.5 27.3088C15.146 27.3088 14.7126 27.1319 14.2184 26.6052C13.7224 26.0764 13.232 25.2599 12.8002 24.1715ZM24.1813 17.2909C23.3757 17.5346 22.4488 17.7458 21.4271 17.9153C21.485 17.13 21.515 16.3227 21.515 15.4998C21.515 14.677 21.485 13.8696 21.4271 13.0844C22.4488 13.2539 23.3757 13.4651 24.1813 13.7088C25.2777 14.0404 26.0958 14.4162 26.6185 14.79C27.166 15.1815 27.2134 15.4352 27.2134 15.4998C27.2134 15.5644 27.166 15.8182 26.6185 16.2096C26.0958 16.5835 25.2777 16.9593 24.1813 17.2909Z" fill="#D7A36A"/>
</g>
</g>
</svg>
