<svg width="145" height="155" viewBox="0 0 145 155" fill="none" xmlns="http://www.w3.org/2000/svg">
<g id="shield-2" clip-path="url(#clip0_1_450)">
<path id="Vector" d="M144.313 50.1115C144.601 68.7405 140.013 86.2178 131.324 102.642C125.614 113.433 118.774 123.426 109.955 131.926C101.907 139.795 92.9007 146.616 83.1486 152.228C81.4918 153.131 79.7707 153.908 77.9988 154.556C77.0775 154.961 76.0553 155.078 75.0663 154.894C74.0767 154.709 73.1664 154.23 72.4518 153.52C71.626 152.801 70.6448 152.286 69.5849 152.015C51.5928 147.395 37.5076 137.064 26.5234 122.32C14.9936 106.844 7.46464 89.4754 3.2746 70.7047C1.36229 62.1378 -0.12804 53.435 0.130749 44.572C0.232166 38.7751 1.11447 33.0186 2.75375 27.4582C3.10073 26.29 3.61781 25.1794 4.28829 24.1622C5.02044 23.0824 6.21491 22.4987 7.50366 23.1122C12.682 25.5792 18.2889 25.6712 23.8048 25.9271C35.276 26.4599 46.1211 23.7205 56.2984 18.5527C62.8624 15.2189 68.3072 10.5197 71.5785 3.68599C71.8035 3.17655 72.0642 2.68371 72.3588 2.21143C73.9479 -0.15916 76.9871 -0.358322 78.4481 2.02985C83.8957 10.9384 92.1776 16.3247 101.206 20.8732C110.049 25.3284 119.408 26.3771 129.117 25.3859C131.328 25.1601 133.543 24.9866 135.761 24.865C138.823 24.6976 140.077 25.4791 141.392 28.4743C143.121 32.4682 144.101 36.7465 144.283 41.0956C144.434 44.0934 144.313 47.1053 144.313 50.1115ZM76.6249 11.7577C76.1463 12.2605 75.7393 12.6233 75.4083 13.046C71.966 17.4501 67.6512 21.0933 62.7356 23.7472C46.6283 32.48 29.5658 34.6324 11.7106 30.5991C10.8926 30.4142 10.0636 30.2815 9.06029 30.0901C7.91271 36.196 7.71725 42.4433 8.48094 48.6093C9.21719 55.0183 10.3635 61.3733 11.9128 67.6354C16.0961 85.3294 23.8429 101.982 34.6785 116.571C44.8733 130.222 58.0371 139.557 74.7458 143.579C75.8602 143.848 76.805 144.035 77.9013 143.353C87.3737 137.449 96.3547 130.909 104.081 122.8C114.897 111.449 122.743 98.1873 128.342 83.6134C134.102 68.6292 135.938 53.0168 134.982 37.0434C134.825 35.7853 134.591 34.5382 134.281 33.3091C123.221 36.1095 112.747 34.7817 102.685 30.5941C92.623 26.4065 83.607 20.5634 76.6262 11.7577H76.6249Z" fill="white"/>
<path id="Vector_2" d="M68.1425 99.3176C70.0112 97.1418 71.5236 95.3697 73.0497 93.6061C81.2737 84.0709 90.1207 75.0933 99.532 66.7331C100.514 65.8291 101.601 65.0483 102.771 64.4074C103.66 63.9386 104.679 63.776 105.67 63.9447C106.661 64.1134 107.569 64.604 108.253 65.3407C109.444 66.7005 109.601 68.7448 108.477 70.6368C107.843 71.6827 107.084 72.6478 106.218 73.5114C102.461 77.3141 98.56 80.9781 94.8829 84.8557C88.6011 91.4797 82.4253 98.2066 76.2488 104.928C71.2987 110.316 69.1815 110.678 63.1268 106.578C58.0612 103.148 53.066 99.6152 48.1412 95.9792C46.1424 94.3817 44.2339 92.6741 42.4244 90.8643C41.9354 90.4084 41.5146 89.8848 41.1747 89.309C40.2032 87.6607 40.3027 85.8808 41.4106 84.6571C41.9263 84.0553 42.6257 83.6418 43.4003 83.479C44.1749 83.3161 44.9815 83.4138 45.695 83.757C47.0826 84.448 48.3956 85.2803 49.6133 86.2403C55.7052 90.5256 61.7815 94.8278 68.1425 99.3176Z" fill="white"/>
</g>
<defs>
<clipPath id="clip0_1_450">
<rect width="145" height="155" fill="white"/>
</clipPath>
</defs>
</svg>
