<svg width="30" height="30" viewBox="0 0 30 30" fill="none" xmlns="http://www.w3.org/2000/svg">
<g id="icon">
<g id="unlock">
<path id="Union" fill-rule="evenodd" clip-rule="evenodd" d="M11.4805 6.90693C12.1843 5.6902 13.4975 4.875 15 4.875C17.2437 4.875 19.0625 6.69384 19.0625 8.9375V10.5H10C7.23858 10.5 5 12.7386 5 15.5V23C5 25.7614 7.23858 28 10 28H20C22.7614 28 25 25.7614 25 23V15.5C25 13.059 23.2508 11.0266 20.9375 10.5878V8.9375C20.9375 5.65831 18.2792 3 15 3C12.8011 3 10.8826 4.19579 9.85744 5.96807C9.59818 6.41625 9.75134 6.98975 10.1995 7.24901C10.6477 7.50827 11.2212 7.35511 11.4805 6.90693ZM17.5 19.25C17.5 20.6307 16.3807 21.75 15 21.75C13.6193 21.75 12.5 20.6307 12.5 19.25C12.5 17.8693 13.6193 16.75 15 16.75C16.3807 16.75 17.5 17.8693 17.5 19.25Z" fill="#D7A36A"/>
</g>
</g>
</svg>
