<svg width="76" height="76" viewBox="0 0 76 76" fill="none" xmlns="http://www.w3.org/2000/svg">
<path d="M75.5 38C75.5 17.2893 58.7107 0.5 38 0.5C17.2893 0.5 0.5 17.2893 0.5 38C0.5 58.7107 17.2893 75.5 38 75.5H75.5V38Z" fill="#D7A36A"/>
<path fill-rule="evenodd" clip-rule="evenodd" d="M38 21C35.0266 20.9995 32.1051 21.7788 29.527 23.2602C26.949 24.7416 24.8046 26.8733 23.3078 29.4425C21.8111 32.0117 21.0143 34.9286 20.9972 37.9019C20.98 40.8752 21.743 43.8011 23.21 46.3874C24.2016 45.0987 25.4762 44.0554 26.9353 43.338C28.3945 42.6205 29.9991 42.2483 31.625 42.25H44.375C46.001 42.2483 47.6056 42.6205 49.0647 43.338C50.5239 44.0554 51.7985 45.0987 52.79 46.3874C54.257 43.8011 55.02 40.8752 55.0029 37.9019C54.9857 34.9286 54.189 32.0117 52.6922 29.4425C51.1955 26.8733 49.0511 24.7416 46.473 23.2602C43.8949 21.7788 40.9734 20.9995 38 21ZM54.8789 50.9115C57.7201 47.2076 59.2569 42.6681 59.25 38C59.25 26.2636 49.7364 16.75 38 16.75C26.2636 16.75 16.75 26.2636 16.75 38C16.743 42.6682 18.2798 47.2076 21.1211 50.9115L21.1105 50.9497L21.8649 51.8274C23.8579 54.1575 26.3325 56.0277 29.118 57.3091C31.9036 58.5905 34.9339 59.2527 38 59.25C42.3081 59.2579 46.5157 57.9493 50.0594 55.4994C51.5701 54.4556 52.94 53.2214 54.1352 51.8274L54.8895 50.9497L54.8789 50.9115ZM38 25.25C36.3093 25.25 34.6878 25.9216 33.4922 27.1172C32.2967 28.3127 31.625 29.9342 31.625 31.625C31.625 33.3158 32.2967 34.9373 33.4922 36.1328C34.6878 37.3284 36.3093 38 38 38C39.6908 38 41.3123 37.3284 42.5078 36.1328C43.7034 34.9373 44.375 33.3158 44.375 31.625C44.375 29.9342 43.7034 28.3127 42.5078 27.1172C41.3123 25.9216 39.6908 25.25 38 25.25Z" fill="white"/>
</svg>
