<svg width="30" height="30" viewBox="0 0 30 30" fill="none" xmlns="http://www.w3.org/2000/svg">
<g id="instagram black.1">
<path id="Instagram" fill-rule="evenodd" clip-rule="evenodd" d="M15.5 4C12.3768 4 11.9852 4.01324 10.7586 4.0692C9.53452 4.12503 8.69855 4.31945 7.96706 4.60376C7.21084 4.8976 6.56951 5.29083 5.93014 5.93014C5.29083 6.56951 4.8976 7.21084 4.60376 7.96706C4.31945 8.69855 4.12503 9.53452 4.0692 10.7586C4.01324 11.9852 4 12.3768 4 15.5C4 18.6232 4.01324 19.0148 4.0692 20.2414C4.12503 21.4655 4.31945 22.3015 4.60376 23.0329C4.8976 23.7892 5.29083 24.4305 5.93014 25.0699C6.56951 25.7092 7.21084 26.1024 7.96706 26.3963C8.69855 26.6805 9.53452 26.875 10.7586 26.9308C11.9852 26.9868 12.3768 27 15.5 27C18.6232 27 19.0148 26.9868 20.2414 26.9308C21.4655 26.875 22.3015 26.6805 23.0329 26.3963C23.7892 26.1024 24.4305 25.7092 25.0699 25.0699C25.7092 24.4305 26.1024 23.7892 26.3963 23.0329C26.6805 22.3015 26.875 21.4655 26.9308 20.2414C26.9868 19.0148 27 18.6232 27 15.5C27 12.3768 26.9868 11.9852 26.9308 10.7586C26.875 9.53452 26.6805 8.69855 26.3963 7.96706C26.1024 7.21084 25.7092 6.56951 25.0699 5.93014C24.4305 5.29083 23.7892 4.8976 23.0329 4.60376C22.3015 4.31945 21.4655 4.12503 20.2414 4.0692C19.0148 4.01324 18.6232 4 15.5 4ZM15.5 6C18.5941 6 18.9606 6.01182 20.1825 6.06757C21.3123 6.11909 21.9259 6.30787 22.3342 6.46656C22.8751 6.67677 23.2611 6.92788 23.6666 7.3334C24.0721 7.73887 24.3232 8.12489 24.5334 8.66578C24.6921 9.07411 24.8809 9.68768 24.9324 10.8175C24.9882 12.0394 25 12.4059 25 15.5C25 18.5941 24.9882 18.9606 24.9324 20.1825C24.8809 21.3123 24.6921 21.9259 24.5334 22.3342C24.3232 22.8751 24.0721 23.2611 23.6666 23.6666C23.2611 24.0721 22.8751 24.3232 22.3342 24.5334C21.9259 24.6921 21.3123 24.8809 20.1825 24.9324C18.9608 24.9882 18.5943 25 15.5 25C12.4057 25 12.0393 24.9882 10.8175 24.9324C9.68768 24.8809 9.07411 24.6921 8.66578 24.5334C8.12489 24.3232 7.73887 24.0721 7.3334 23.6666C6.92792 23.2611 6.67677 22.8751 6.46656 22.3342C6.30787 21.9259 6.11909 21.3123 6.06757 20.1825C6.01182 18.9606 6 18.5941 6 15.5C6 12.4059 6.01182 12.0394 6.06757 10.8175C6.11909 9.68768 6.30787 9.07411 6.46656 8.66578C6.67677 8.12489 6.92788 7.73887 7.3334 7.3334C7.73887 6.92788 8.12489 6.67677 8.66578 6.46656C9.07411 6.30787 9.68768 6.11909 10.8175 6.06757C12.0394 6.01182 12.4059 6 15.5 6ZM10 16C10 12.6863 12.6863 10 16 10C19.3137 10 22 12.6863 22 16C22 19.3137 19.3137 22 16 22C12.6863 22 10 19.3137 10 16ZM16 20C13.7909 20 12 18.2091 12 16C12 13.7909 13.7909 12 16 12C18.2091 12 20 13.7909 20 16C20 18.2091 18.2091 20 16 20ZM21.5 11C22.3284 11 23 10.3285 23 9.50003C23 8.67159 22.3284 8 21.5 8C20.6716 8 20 8.67159 20 9.50003C20 10.3285 20.6716 11 21.5 11Z" fill="#353535"/>
</g>
</svg>
