<svg width="30" height="30" viewBox="0 0 30 30" fill="none" xmlns="http://www.w3.org/2000/svg">
<g id="round-place-24px">
<path id="Shape" fill-rule="evenodd" clip-rule="evenodd" d="M6 11.6287C6 6.85824 10.0243 3 15 3C19.9757 3 24 6.85824 24 11.6287C24 16.7689 18.3171 23.8567 15.99 26.5562C15.4757 27.1479 14.5371 27.1479 14.0229 26.5562C11.6829 23.8567 6 16.7689 6 11.6287ZM12 12C12 13.656 13.344 15 15 15C16.656 15 18 13.656 18 12C18 10.344 16.656 9 15 9C13.344 9 12 10.344 12 12Z" fill="#353535"/>
</g>
</svg>
