<svg width="30" height="30" viewBox="0 0 30 30" fill="none" xmlns="http://www.w3.org/2000/svg">
<g id="twitter black.1">
<path id="Twitter" d="M27 8.24926C26.1549 8.63077 25.245 8.88877 24.2905 9.00405C25.2652 8.4112 26.0131 7.47114 26.3655 6.35132C25.4529 6.90025 24.4444 7.2996 23.3671 7.51369C22.5085 6.58187 21.2814 6 19.9233 6C17.3191 6 15.2064 8.14771 15.2064 10.7963C15.2064 11.1723 15.2469 11.5374 15.3279 11.8887C11.4061 11.6883 7.92986 9.78079 5.6011 6.87555C5.19475 7.58642 4.96255 8.4112 4.96255 9.28949C4.96255 10.9528 5.7955 12.4212 7.06181 13.2816C6.2896 13.2583 5.5606 13.0401 4.9234 12.6833V12.7423C4.9234 15.067 6.55016 17.0061 8.71016 17.4453C8.31461 17.5578 7.89746 17.6141 7.46681 17.6141C7.16306 17.6141 6.86606 17.5853 6.57851 17.529C7.17926 19.4338 8.92076 20.8212 10.9863 20.8583C9.37166 22.1455 7.33586 22.9127 5.1259 22.9127C4.7452 22.9127 4.36855 22.8907 4 22.8468C6.08845 24.2054 8.56976 25 11.2333 25C19.9138 25 24.6591 17.6923 24.6591 11.3535C24.6591 11.1449 24.655 10.9363 24.6469 10.7318C25.569 10.0553 26.3695 9.21127 27 8.24926Z" fill="#353535"/>
</g>
</svg>
